<?xml version="1.0" encoding="UTF-8" standalone="no"?>
<svg
   xmlns:dc="http://purl.org/dc/elements/1.1/"
   xmlns:cc="http://creativecommons.org/ns#"
   xmlns:rdf="http://www.w3.org/1999/02/22-rdf-syntax-ns#"
   xmlns:svg="http://www.w3.org/2000/svg"
   xmlns="http://www.w3.org/2000/svg"
   xmlns:xlink="http://www.w3.org/1999/xlink"
   xmlns:sodipodi="http://sodipodi.sourceforge.net/DTD/sodipodi-0.dtd"
   xmlns:inkscape="http://www.inkscape.org/namespaces/inkscape"
   width="45"
   height="45"
   version="1.1"
   id="svg48"
   sodipodi:docname="jupyter_logo_icon.svg"
   inkscape:version="0.92.5 (0.92.5+68)">
  <metadata
     id="metadata52">
    <rdf:RDF>
      <cc:Work
         rdf:about="">
        <dc:format>image/svg+xml</dc:format>
        <dc:type
           rdf:resource="http://purl.org/dc/dcmitype/StillImage" />
        <dc:title></dc:title>
      </cc:Work>
    </rdf:RDF>
  </metadata>
  <sodipodi:namedview
     pagecolor="#ffffff"
     bordercolor="#666666"
     borderopacity="1"
     objecttolerance="10"
     gridtolerance="10"
     guidetolerance="10"
     inkscape:pageopacity="0"
     inkscape:pageshadow="2"
     inkscape:window-width="1871"
     inkscape:window-height="1062"
     id="namedview50"
     showgrid="false"
     inkscape:zoom="6.6468037"
     inkscape:cx="-8.7603812"
     inkscape:cy="44.819522"
     inkscape:window-x="49"
     inkscape:window-y="18"
     inkscape:window-maximized="1"
     inkscape:current-layer="g32" />
  <g
     transform="translate(-0.936,-15)"
     id="g32">
    <g
       transform="matrix(0.808856,0,0,0.808856,-1317.0965,-1675.9056)"
       id="g30">
      <use
         xlink:href="#H"
         x="1669.3"
         y="2093.3101"
         id="use18"
         style="fill:#767677"
         width="100%"
         height="100%" />
      <g
         id="g24"
         style="fill:#f37726">
        <use
           xlink:href="#I"
           x="1639.74"
           y="2123.98"
           id="use20"
           width="100%"
           height="100%" />
        <use
           xlink:href="#J"
           x="1639.73"
           y="2097.48"
           id="use22"
           width="100%"
           height="100%" />
      </g>
      <use
         xlink:href="#K"
         x="1639.8"
         y="2135.8101"
         id="use26"
         style="fill:#989798"
         width="100%"
         height="100%" />
      <use
         xlink:href="#L"
         x="1638.36"
         y="2098.0601"
         id="use28"
         style="fill:#6f7070"
         width="100%"
         height="100%" />
    </g>
  </g>
  <defs
     id="defs46">
    <path
       id="A"
       d="m 5.626,17.928 c 0,5.146 -0.393,6.826 -1.44,8.067 C 3.044,27.05 1.55,27.634 0,27.63 l 0.393,3.06 C 2.795,30.723 5.123,29.855 6.926,28.253 8.801,26.3 9.456,23.6 9.456,19.456 V 0 H 5.617 v 17.954 z"
       inkscape:connector-curvature="0" />
    <path
       id="B"
       d="m 17.74,15.623 0.174,5.85 h -3.358 l -0.218,-3.52 h -0.087 a 7.96,7.96 0 0 1 -2.953,2.948 c -1.226,0.7 -2.616,1.058 -4.025,1.037 C 3.96,21.94 0,20.074 0,12.544 V 0 h 3.838 v 11.902 c 0,4.082 1.22,6.826 4.7,6.826 1.092,-0.02 2.153,-0.365 3.052,-0.99 0.899,-0.625 1.594,-1.505 2,-2.528 0.233,-0.64 0.35,-1.316 0.35,-1.997 V 0.018 h 3.838 v 15.605 z"
       inkscape:connector-curvature="0" />
    <path
       id="C"
       d="M 0.174,7.536 0,0.5 H 3.445 L 3.619,4.177 H 3.706 A 8.31,8.31 0 0 1 6.877,1.04 8.22,8.22 0 0 1 11.2,0.006 c 5.094,0 8.932,4.398 8.932,10.908 0,7.715 -4.614,11.524 -9.595,11.524 A 7.33,7.33 0 0 1 6.85,21.619 7.4,7.4 0 0 1 4.047,19.069 H 3.96 V 30.725 H 0.166 V 7.5 Z m 3.794,5.718 a 8.87,8.87 0 0 0 0.174,1.592 5.98,5.98 0 0 0 2.091,3.285 5.89,5.89 0 0 0 3.657,1.281 c 4.056,0 6.402,-3.37 6.402,-8.286 0,-4.302 -2.224,-7.98 -6.27,-7.98 -1.36,0.038 -2.67,0.535 -3.72,1.4 C 5.252,5.411 4.522,6.626 4.23,7.966 4.076,8.483 3.988,9.018 3.968,9.558 v 3.677 z"
       inkscape:connector-curvature="0" />
    <path
       id="D"
       d="m 4.16,0 4.614,12.676 1.352,4.398 h 0.087 L 11.565,12.596 15.753,0.01 h 4.056 L 14.06,15.306 C 11.313,22.66 9.446,26.434 6.83,28.74 5.508,29.98 3.887,30.85 2.13,31.265 l -0.96,-3.28 c 1.23,-0.413 2.37,-1.06 3.358,-1.91 1.396,-1.176 2.5,-2.664 3.227,-4.346 A 2.83,2.83 0 0 0 8.06,20.797 C 8.026,20.445 7.937,20.101 7.798,19.777 L 0,0.01 h 4.187 z"
       inkscape:connector-curvature="0" />
    <path
       id="E"
       d="m 7.022,0 v 6.158 h 5.486 V 9.13 H 7.022 V 20.7 c 0,2.64 0.74,4.17 2.878,4.17 0.75,0.012 1.498,-0.077 2.224,-0.264 l 0.174,2.93 c -1.09,0.388 -2.245,0.567 -3.402,0.528 C 8.129,28.111 7.361,27.99 6.646,27.707 5.931,27.424 5.286,26.987 4.753,26.427 3.653,25.275 3.27,23.367 3.27,20.841 V 9.13 H 0 V 6.158 H 3.27 V 1.012 Z"
       inkscape:connector-curvature="0" />
    <path
       id="F"
       d="m 3.63,11.928 c 0.087,5.278 3.402,7.45 7.23,7.45 2.002,0.063 3.993,-0.315 5.835,-1.108 l 0.654,2.79 c -2.207,0.935 -4.585,1.387 -6.978,1.328 C 3.88,22.388 0,18.042 0,11.568 0,5.094 3.75,0 9.89,0 c 6.882,0 8.722,6.158 8.722,10.107 -0.006,0.61 -0.05,1.217 -0.13,1.82 H 3.655 Z M 14.873,9.138 C 14.917,6.658 13.87,2.796 9.561,2.796 c -3.88,0 -5.574,3.633 -5.88,6.342 h 11.2 z"
       inkscape:connector-curvature="0" />
    <path
       id="G"
       d="M 0.174,7.18 0,0.484 h 3.358 l 0.13,4.214 H 3.662 C 4.623,1.813 6.934,0 9.5,0 9.868,-0.005 10.234,0.04 10.6,0.132 V 3.81 C 10.17,3.716 9.73,3.67 9.292,3.678 6.588,3.678 4.678,5.763 4.155,8.683 A 11.14,11.14 0 0 0 3.981,10.504 V 21.94 H 0.174 Z"
       inkscape:connector-curvature="0" />
    <path
       id="H"
       d="M 5.894,2.844 C 5.919,3.432 5.771,4.014 5.469,4.516 5.167,5.018 4.723,5.42 4.194,5.668 3.665,5.916 3.074,6.001 2.499,5.911 A 2.94,2.94 0 0 1 0.956,5.163 2.98,2.98 0 0 1 0.085,3.677 C -0.053,3.107 -0.02,2.507 0.18,1.953 A 2.97,2.97 0 0 1 1.208,0.574 2.93,2.93 0 0 1 2.823,0.003 c 0.78,-0.033 1.542,0.247 2.118,0.78 0.576,0.533 0.918,1.274 0.952,2.06 z"
       inkscape:connector-curvature="0" />
    <path
       id="I"
       d="M 18.265,7.134 C 10.415,7.134 3.56,4.258 0,0 c 1.325,3.82 3.796,7.13 7.07,9.473 3.274,2.343 7.187,3.6 11.2,3.6 4.013,0 7.927,-1.258 11.2,-3.6 C 32.743,7.131 35.213,3.82 36.538,0 32.97,4.258 26.115,7.134 18.265,7.134 Z"
       inkscape:connector-curvature="0" />
    <path
       id="J"
       d="m 18.273,5.94 c 7.85,0 14.706,2.877 18.265,7.134 C 35.213,9.254 32.742,5.944 29.468,3.601 26.194,1.258 22.282,0 18.27,0 14.258,0 10.343,1.258 7.07,3.6 3.797,5.942 1.325,9.253 0,13.073 3.567,8.825 10.423,5.94 18.273,5.94 Z"
       inkscape:connector-curvature="0" />
    <path
       id="K"
       d="M 7.428,3.583 A 3.77,3.77 0 0 1 6.892,5.692 C 6.51,6.326 5.952,6.832 5.284,7.144 4.616,7.456 3.884,7.564 3.147,7.45 2.41,7.336 1.743,7.008 1.202,6.506 0.661,6.004 0.28,5.353 0.105,4.632 A 3.78,3.78 0 0 1 0.227,2.459 C 0.48,1.763 0.932,1.159 1.527,0.719 2.122,0.279 2.83,0.033 3.564,0.003 4.547,-0.037 5.504,0.317 6.23,0.988 a 3.76,3.76 0 0 1 1.198,2.596 z"
       inkscape:connector-curvature="0" />
    <path
       id="L"
       d="M 2.275,4.396 C 1.845,4.416 1.417,4.304 1.048,4.078 0.679,3.852 0.385,3.52 0.203,3.127 0.021,2.734 -0.04,2.292 0.026,1.862 0.092,1.432 0.283,1.03 0.575,0.71 0.867,0.39 1.247,0.164 1.665,0.06 2.083,-0.044 2.525,-0.018 2.93,0.132 3.335,0.282 3.687,0.549 3.94,0.902 A 2.21,2.21 0 0 1 3.784,3.686 C 3.394,4.116 2.85,4.37 2.274,4.396 Z"
       inkscape:connector-curvature="0" />
  </defs>
</svg>
